<?xml version="1.0" encoding="UTF-8"?>
<svg id="Layer_1" data-name="Layer 1" xmlns="http://www.w3.org/2000/svg" viewBox="0 0 1033.61 236.35">
  <defs>
    <style>
      .cls-1 {
        fill: #05f;
      }
    </style>
  </defs>
  <path class="cls-1" d="M1025.94,101.55c-.38-1.68-1.07-2.6-2.29-3.06v-.16c1.53-.46,2.6-1.54,2.6-2.91,0-1.23-.54-2.23-1.23-2.76-.92-.54-1.99-.92-4.37-.92-2.07,0-3.69.15-4.83.38v12.57h2.91v-5.06h1.37c1.62,0,2.38.62,2.61,1.99.38,1.46.61,2.61.99,3.07h3.15c-.3-.45-.53-1.23-.92-3.15ZM1020.19,97.57h-1.37v-3.61c.3-.08.84-.15,1.61-.15,1.84,0,2.68.77,2.68,1.92,0,1.31-1.31,1.85-2.91,1.85ZM1025.94,101.55c-.38-1.68-1.07-2.6-2.29-3.06v-.16c1.53-.46,2.6-1.54,2.6-2.91,0-1.23-.54-2.23-1.23-2.76-.92-.54-1.99-.92-4.37-.92-2.07,0-3.69.15-4.83.38v12.57h2.91v-5.06h1.37c1.62,0,2.38.62,2.61,1.99.38,1.46.61,2.61.99,3.07h3.15c-.3-.45-.53-1.23-.92-3.15ZM1020.19,97.57h-1.37v-3.61c.3-.08.84-.15,1.61-.15,1.84,0,2.68.77,2.68,1.92,0,1.31-1.31,1.85-2.91,1.85ZM1020.73,85.53c-7.21,0-12.96,5.59-12.96,12.57s5.75,12.73,12.96,12.73,12.87-5.59,12.87-12.73-5.59-12.57-12.87-12.57ZM1020.8,108.15c-5.67,0-9.8-4.45-9.8-10.05s4.13-10.05,9.74-10.05,9.66,4.53,9.66,10.12-4.07,9.97-9.59,9.97ZM1023.65,98.49v-.16c1.53-.46,2.6-1.54,2.6-2.91,0-1.23-.54-2.23-1.23-2.76-.92-.54-1.99-.92-4.37-.92-2.07,0-3.69.15-4.83.38v12.57h2.91v-5.06h1.37c1.62,0,2.38.62,2.61,1.99.38,1.46.61,2.61.99,3.07h3.15c-.3-.45-.53-1.23-.92-3.15-.38-1.68-1.07-2.6-2.29-3.06ZM1020.19,97.57h-1.37v-3.61c.3-.08.84-.15,1.61-.15,1.84,0,2.68.77,2.68,1.92,0,1.31-1.31,1.85-2.91,1.85ZM1025.94,101.55c-.38-1.68-1.07-2.6-2.29-3.06v-.16c1.53-.46,2.6-1.54,2.6-2.91,0-1.23-.54-2.23-1.23-2.76-.92-.54-1.99-.92-4.37-.92-2.07,0-3.69.15-4.83.38v12.57h2.91v-5.06h1.37c1.62,0,2.38.62,2.61,1.99.38,1.46.61,2.61.99,3.07h3.15c-.3-.45-.53-1.23-.92-3.15ZM1020.19,97.57h-1.37v-3.61c.3-.08.84-.15,1.61-.15,1.84,0,2.68.77,2.68,1.92,0,1.31-1.31,1.85-2.91,1.85ZM1025.94,101.55c-.38-1.68-1.07-2.6-2.29-3.06v-.16c1.53-.46,2.6-1.54,2.6-2.91,0-1.23-.54-2.23-1.23-2.76-.92-.54-1.99-.92-4.37-.92-2.07,0-3.69.15-4.83.38v12.57h2.91v-5.06h1.37c1.62,0,2.38.62,2.61,1.99.38,1.46.61,2.61.99,3.07h3.15c-.3-.45-.53-1.23-.92-3.15ZM1020.19,97.57h-1.37v-3.61c.3-.08.84-.15,1.61-.15,1.84,0,2.68.77,2.68,1.92,0,1.31-1.31,1.85-2.91,1.85Z"/>
  <path class="cls-1" d="M426.71,88.42c16.5,0,29.71,5.2,39.65,15.61,9.94,10.41,14.91,24.52,14.91,42.33v86.34h-24.47v-84.94c0-11.43-3.09-20.29-9.28-26.58-6.19-6.28-14.72-9.42-25.59-9.42-12.19,0-22.03,3.8-29.53,11.39-7.5,7.59-11.25,19.27-11.25,35.02v74.53h-24.47V92.07h24.47v20.25c9.94-15.93,25.12-23.9,45.56-23.9Z"/>
  <path class="cls-1" d="M621.46,35.83h24.47v196.87h-24.47v-24.19c-12.19,18.56-29.91,27.84-53.15,27.84-19.69,0-36.47-7.17-50.34-21.52-13.88-14.34-20.81-31.82-20.81-52.45s6.93-38.11,20.81-52.45c13.87-14.35,30.66-21.52,50.34-21.52,23.25,0,40.96,9.28,53.15,27.84V35.83ZM571.39,212.73c14.25,0,26.16-4.83,35.72-14.48,9.56-9.66,14.34-21.61,14.34-35.86s-4.78-26.2-14.34-35.86c-9.56-9.66-21.47-14.48-35.72-14.48s-25.87,4.83-35.44,14.48c-9.56,9.66-14.34,21.61-14.34,35.86s4.78,26.2,14.34,35.86c9.56,9.66,21.37,14.48,35.44,14.48Z"/>
  <path class="cls-1" d="M686.8,173.63c2.43,12.56,8.2,22.32,17.3,29.25,9.09,6.94,20.29,10.4,33.61,10.4,18.56,0,32.06-6.84,40.5-20.53l20.81,11.81c-13.69,21.19-34.31,31.78-61.87,31.78-22.32,0-40.45-6.98-54.42-20.95-13.97-13.97-20.95-31.64-20.95-53.01s6.84-38.81,20.53-52.87c13.68-14.06,31.4-21.09,53.15-21.09,20.62,0,37.45,7.27,50.48,21.8,13.03,14.53,19.55,32.02,19.55,52.45,0,3.56-.28,7.22-.84,10.97h-117.84ZM735.45,111.48c-13.13,0-24,3.7-32.62,11.11-8.63,7.41-13.97,17.3-16.03,29.67h93.93c-2.07-13.31-7.31-23.44-15.75-30.38-8.44-6.93-18.28-10.4-29.53-10.4Z"/>
  <path class="cls-1" d="M223.02,173.63c2.43,12.56,8.2,22.32,17.3,29.25,9.09,6.94,20.29,10.4,33.61,10.4,18.56,0,32.06-6.84,40.5-20.53l20.81,11.81c-13.69,21.19-34.31,31.78-61.87,31.78-22.32,0-40.45-6.98-54.42-20.95-13.97-13.97-20.95-31.64-20.95-53.01s6.84-38.81,20.53-52.87c13.68-14.06,31.4-21.09,53.15-21.09,20.62,0,37.45,7.27,50.48,21.8,13.03,14.53,19.55,32.02,19.55,52.45,0,3.56-.28,7.22-.84,10.97h-117.84ZM271.68,111.48c-13.13,0-24,3.7-32.62,11.11-8.63,7.41-13.97,17.3-16.03,29.67h93.93c-2.07-13.31-7.31-23.44-15.75-30.38-8.44-6.93-18.28-10.4-29.53-10.4Z"/>
  <path class="cls-1" d="M845.78,115.7c8.06-17.44,22.68-26.15,43.87-26.15v25.59c-12-.56-22.31,2.63-30.94,9.56-8.63,6.94-12.94,18.09-12.94,33.47v74.53h-24.47V92.07h24.47v23.62Z"/>
  <path class="cls-1" d="M930.24,129.62c0,5.32,2.76,9.58,8.28,12.79,5.52,3.21,12.1,5.94,19.74,8.18,7.64,2.25,15.32,4.5,23.05,6.77,7.73,2.27,14.27,6.52,19.63,12.77,5.36,6.24,8.04,14.25,8.04,24.04,0,12.75-4.92,22.97-14.76,30.66-9.84,7.69-22.46,11.53-37.83,11.53-13.69,0-25.41-3-35.15-9-9.75-6-16.69-13.97-20.81-23.9l21.09-12.09c2.25,6.75,6.47,12.09,12.66,16.03,6.19,3.94,13.59,5.91,22.22,5.91,8.06,0,14.72-1.54,19.97-4.63,5.25-3.09,7.87-7.91,7.87-14.46,0-5.43-2.72-9.78-8.16-13.06-5.45-3.28-11.99-6.06-19.63-8.35-7.64-2.3-15.33-4.6-23.05-6.92-7.73-2.32-14.31-6.48-19.75-12.48-5.44-6-8.16-13.68-8.16-23.06,0-12.19,4.73-22.22,14.2-30.09,9.47-7.87,21.33-11.81,35.58-11.81,11.43,0,21.61,2.58,30.51,7.73,8.9,5.16,15.61,12.33,20.11,21.52l-20.53,11.53c-5.06-12-15.09-18-30.09-18-6.94,0-12.84,1.6-17.72,4.81-4.88,3.21-7.31,7.75-7.31,13.61Z"/>
  <path class="cls-1" d="M180.64,135.06c-13.51-41.72-65.08-56.32-105.56-47.55h0s-.04.01-.04.01C71.8,55.15,59.15,23.45,36.3,0c-4.36,4.28-10.12,9.86-18.45,17.87C63.92,67.02,56.99,151.43,0,189.06l13.98,21.82c32.39-21.75,53.89-57.32,59.77-95.75,22.26-6.68,49.04-6.17,68.13,8.37,0-.01.02,0,.02,0,47.17,44.89-8.97,106.28-62.98,77.54-4.67,7.46-9.86,14.6-15.81,21.11,59.04,35.88,143.55-16.84,117.53-87.12Z"/>
</svg>